<?xml version="1.0" encoding="UTF-8"?>
<svg id="Layer_2" data-name="Layer 2" xmlns="http://www.w3.org/2000/svg" viewBox="0 0 1482.75 164.45">
  <g id="Layer_1-2" data-name="Layer 1">
    <path d="M119.89,29.85l-8.36,31.16-54.15-14.44-4.75,17.48,54.15,14.44-8.36,31.16-54.15-14.44-12.92,48.64L0,135.49,34.58,7.05l85.31,22.8Z"/>
    <path d="M180.69,15.22l-26.03,97.28,55.1,14.82-8.36,31.16-86.45-23.18L149.53,6.86l31.16,8.36Z"/>
    <path d="M219.35,111.55c-3.99-8.61-5.98-17.8-5.98-27.55,0-6.33.82-12.54,2.47-18.62,2.66-10.01,7.06-18.75,13.21-26.22,6.14-7.47,13.52-13.21,22.14-17.2,8.61-3.99,17.8-5.99,27.55-5.99,6.33,0,12.54.82,18.62,2.47,10.01,2.66,18.75,7.06,26.22,13.21,7.47,6.14,13.21,13.52,17.2,22.14,3.99,8.61,5.98,17.8,5.98,27.55,0,6.33-.82,12.54-2.47,18.62-2.66,10.01-7.06,18.75-13.21,26.22-6.14,7.47-13.52,13.21-22.14,17.2-8.61,3.99-17.8,5.98-27.55,5.98-6.33,0-12.54-.82-18.62-2.47-10.01-2.66-18.75-7.06-26.22-13.21-7.47-6.14-13.21-13.52-17.2-22.14ZM301.24,110.32c5.76-4.5,9.72-10.74,11.88-18.72.89-3.17,1.33-6.52,1.33-10.07,0-7.6-2.25-14.28-6.75-20.05-4.5-5.76-10.73-9.72-18.72-11.88-3.17-.89-6.52-1.33-10.07-1.33-7.6,0-14.28,2.25-20.05,6.75-5.76,4.5-9.72,10.73-11.88,18.71-.89,3.17-1.33,6.52-1.33,10.07,0,7.6,2.25,14.28,6.75,20.05,4.5,5.76,10.73,9.72,18.72,11.88,3.17.89,6.52,1.33,10.07,1.33,7.6,0,14.28-2.25,20.05-6.75Z"/>
    <path d="M385.76,6.54l16.34,90.78,48.82-78.66,31.9,5.93,17.11,90.91,48.05-78.79,34.03,6.33-74.3,121.4-31.9-5.93-17.5-91.08-49.2,78.69-31.9-5.93L351.91,0l33.85,6.54Z"/>
    <path d="M624.34,101.48l31.16-3.8c-.38,4.81.41,8.71,2.38,11.69,1.96,2.98,5.42,5.1,10.35,6.37,2.79.63,4.94.95,6.46.95,3.93,0,6.33-1.58,7.22-4.75.25-1.01.38-1.71.38-2.09,0-2.03-1.27-4.15-3.8-6.37-2.53-2.22-7.73-5.86-15.58-10.92-7.85-5.32-13.77-10.89-17.77-16.72-3.99-5.83-5.98-12.22-5.98-19.19,0-3.93.51-7.6,1.52-11.02,2.53-9.37,7.12-16.63,13.77-21.76,6.65-5.13,14.66-7.7,24.04-7.7,5.07,0,10.32.76,15.77,2.28,11.91,3.17,20.96,8.77,27.17,16.82,6.21,8.04,8.93,17.58,8.17,28.6l-31.16,3.8c.38-4.81-.41-8.71-2.38-11.69s-5.42-5.1-10.36-6.37c-2.79-.63-4.94-.95-6.46-.95-3.93,0-6.33,1.58-7.22,4.75-.25,1.01-.38,1.71-.38,2.09,0,2.03,1.27,4.15,3.8,6.37,2.53,2.22,7.73,5.86,15.58,10.93,7.85,5.32,13.77,10.89,17.77,16.72s5.99,12.22,5.99,19.19c0,3.93-.51,7.6-1.52,11.02-2.53,9.37-7.12,16.62-13.77,21.75-6.65,5.13-14.66,7.7-24.04,7.7-4.94,0-10.2-.76-15.77-2.28-11.91-3.17-20.96-8.77-27.17-16.81-6.21-8.04-8.93-17.58-8.17-28.6Z"/>
    <path d="M748.69,111.55c-3.99-8.61-5.98-17.8-5.98-27.55,0-6.33.82-12.54,2.47-18.62,2.66-10.01,7.06-18.75,13.21-26.22,6.14-7.47,13.52-13.21,22.14-17.2,8.61-3.99,17.8-5.99,27.55-5.99,6.33,0,12.54.82,18.62,2.47,10.01,2.66,18.75,7.06,26.22,13.21s13.21,13.52,17.2,22.14c3.99,8.61,5.99,17.8,5.99,27.55,0,6.33-.82,12.54-2.47,18.62-2.66,10.01-7.06,18.75-13.21,26.22-6.14,7.47-13.52,13.21-22.13,17.2-8.61,3.99-17.8,5.98-27.55,5.98-6.33,0-12.54-.82-18.62-2.47-10.01-2.66-18.75-7.06-26.22-13.21-7.47-6.14-13.21-13.52-17.2-22.14ZM830.58,110.32c5.76-4.5,9.72-10.74,11.88-18.72.89-3.17,1.33-6.52,1.33-10.07,0-7.6-2.25-14.28-6.75-20.05-4.5-5.76-10.74-9.72-18.71-11.88-3.17-.89-6.52-1.33-10.07-1.33-7.6,0-14.28,2.25-20.04,6.75-5.76,4.5-9.72,10.73-11.88,18.71-.89,3.17-1.33,6.52-1.33,10.07,0,7.6,2.25,14.28,6.74,20.05,4.5,5.76,10.74,9.72,18.72,11.88,3.17.89,6.52,1.33,10.07,1.33,7.6,0,14.28-2.25,20.04-6.75Z"/>
    <path d="M896.79,113.55c-4.05-8.68-6.08-17.89-6.08-27.65,0-6.21.82-12.35,2.47-18.43,2.66-10.01,7.06-18.72,13.21-26.12,6.14-7.41,13.52-13.11,22.14-17.1,8.61-3.99,17.8-5.98,27.55-5.98,6.33,0,12.54.82,18.62,2.47,8.74,2.28,16.91,6.02,24.51,11.21,7.6,5.19,13.68,11.46,18.24,18.81l-22.8,24.32c-6.59-12.16-15.96-19.89-28.12-23.18-3.17-.89-6.52-1.33-10.07-1.33-7.73,0-14.5,2.28-20.33,6.84-5.83,4.56-9.75,10.77-11.78,18.62-.89,3.17-1.33,6.59-1.33,10.26,0,7.6,2.28,14.25,6.84,19.95,4.56,5.7,10.83,9.63,18.81,11.78,5.07,1.27,10.07,1.9,15.01,1.9,4.31,0,8.49-.44,12.54-1.33l-1.33,32.11c-4.56.76-9.18,1.14-13.87,1.14-7.09,0-14-.89-20.71-2.66-10.01-2.66-18.75-7.09-26.22-13.3-7.47-6.21-13.24-13.65-17.29-22.33Z"/>
    <path d="M1073.87,22.63l-34.39,128.44-31.35-8.36,34.39-128.44,31.35,8.36Z"/>
    <path d="M1191.67,29.85l-8.36,31.16-54.15-14.44-4.75,17.48,54.15,14.44-8.36,31.16-54.15-14.44-4.56,17.48,53.96,14.44-8.36,31.16-85.31-22.8,34.58-128.44,85.31,22.8Z"/>
    <path d="M1209.72,33.65l8.36-31.16,119.13,31.92-8.36,31.16-43.89-11.78-26.22,97.28-31.16-8.36,26.03-97.28-43.89-11.78Z"/>
    <path d="M1345.38.02l37.43,10.07,18.43,56.24,44.08-39.52,37.43,10.07-74.86,67.07-12.54,47.12-31.35-8.36,12.73-47.12L1345.38.02Z"/>
  </g>
</svg>