<?xml version="1.0" encoding="UTF-8"?>
<svg id="Layer_2" data-name="Layer 2" xmlns="http://www.w3.org/2000/svg" viewBox="0 0 556.57 556.53">
  <g id="Layer_1-2" data-name="Layer 1">
    <path d="M556.19,291.7c.51-9.05.5-17.79,0-26.92l-44.05-22.33c-2.72-17.11-7.08-33.79-13.46-50.08l27.04-41.48-13.44-23.24-49.34,2.68c-10.89-13.4-22.89-25.64-36.73-36.65l2.66-49.44-23.24-13.44-41.41,27.01c-16.04-6.12-32.57-10.75-50.09-13.35L291.72.33c-9.07-.44-17.81-.44-26.88,0l-22.41,44.14c-17.41,2.63-33.84,7.08-50.04,13.37l-41.46-27.03c-8.01,4.13-15.35,8.44-23.23,13.34l2.65,49.52c-13.71,11-25.71,23.01-36.67,36.65l-49.42-2.66c-4.88,7.59-9.23,15.18-13.43,23.22l27.03,41.46c-6.27,16.21-10.74,32.68-13.39,50.06L.36,264.79c-.48,9.13-.49,17.85.01,26.9l44.12,22.39c2.64,17.42,7.1,33.85,13.37,50.05l-27.03,41.47,13.45,23.22,49.43-2.66c11.01,13.85,23.25,25.86,36.65,36.71l-2.66,49.47,23.24,13.32,41.47-27.03c16.32,6.41,33,10.74,50.08,13.45l22.33,44.04c9.1.5,17.83.6,26.97-.08l22.33-44.02c17.38-2.65,33.81-7.08,50.05-13.39l41.47,27.03,23.23-13.42-2.66-49.44c13.68-10.94,25.67-22.93,36.65-36.64l49.51,2.64,13.36-23.22-27.01-41.4c6.18-16.13,10.76-32.87,13.39-50.13l44.07-22.35ZM376,371.16c-53.13,55.82-141.98,55.73-195.07.4-51.05-53.22-49.76-137.97,2.99-189.66,52.32-51.26,136.39-51.28,188.74.01,52.48,51.42,54.16,135.86,3.34,189.25Z"/>
  </g>
</svg>